<?xml version="1.0" standalone="no"?>
<!DOCTYPE svg PUBLIC "-//W3C//DTD SVG 20010904//EN"
 "http://www.w3.org/TR/2001/REC-SVG-20010904/DTD/svg10.dtd">
<svg version="1.0" xmlns="http://www.w3.org/2000/svg"
 width="896.000000pt" height="896.000000pt" viewBox="0 0 896.000000 896.000000"
 preserveAspectRatio="xMidYMid meet">
<metadata>
Created by potrace 1.11, written by Peter Selinger 2001-2013
</metadata>
<g transform="translate(0.000000,896.000000) scale(0.100000,-0.100000)"
fill="#000000" stroke="none">
<path d="M4340 8669 c-105 -24 -168 -46 -248 -89 -99 -54 -142 -100 -142 -154
0 -55 17 -84 70 -123 69 -51 70 -52 66 -76 -2 -18 -16 -26 -82 -44 -43 -12
-79 -21 -80 -20 -1 1 -4 18 -7 38 -2 20 -15 66 -27 104 -23 68 -55 108 -144
180 -41 32 -101 42 -114 19 -4 -7 -23 -16 -42 -19 -128 -22 -183 -56 -249
-154 -43 -63 -163 -276 -205 -364 -15 -32 -31 -57 -35 -55 -3 2 -67 33 -141
69 -254 125 -457 184 -627 181 -29 0 -61 -3 -70 -6 -23 -7 -85 -197 -114 -346
-42 -214 -29 -513 29 -695 l19 -60 -54 -60 c-30 -33 -79 -96 -108 -140 -76
-114 -178 -312 -171 -331 3 -9 -5 -52 -19 -95 -30 -97 -63 -257 -71 -346 -4
-38 -6 -140 -6 -228 1 -165 4 -215 27 -410 13 -119 65 -351 95 -431 6 -14 10
-26 10 -28 0 -1 -143 -2 -317 -2 -280 0 -588 -8 -693 -19 -19 -2 -73 -6 -120
-10 -47 -3 -98 -8 -115 -10 -16 -2 -57 -7 -90 -10 -33 -4 -73 -8 -90 -10 -16
-3 -52 -7 -80 -10 -27 -3 -57 -7 -65 -10 -8 -2 -40 -7 -70 -10 -30 -3 -62 -8
-70 -10 -8 -2 -28 -7 -45 -9 -71 -13 -139 -26 -142 -30 -2 -2 -1 -10 3 -19 4
-12 12 -13 32 -7 15 5 99 20 187 34 170 27 181 28 385 51 25 3 63 8 85 10 66
8 304 24 460 31 50 2 232 3 405 3 173 0 323 0 333 0 13 0 28 -22 53 -76 18
-41 34 -79 34 -83 0 -4 -33 -8 -72 -10 -126 -3 -362 -18 -408 -25 -14 -2 -64
-6 -112 -10 -48 -3 -98 -8 -110 -10 -13 -2 -54 -6 -91 -10 -37 -3 -76 -8 -85
-9 -9 -2 -44 -7 -77 -11 -32 -4 -66 -8 -75 -10 -8 -1 -31 -5 -50 -9 -19 -3
-57 -8 -85 -11 -27 -4 -81 -13 -120 -21 -38 -8 -90 -17 -115 -20 -24 -3 -47
-7 -51 -9 -3 -2 -21 -7 -40 -10 -110 -19 -464 -107 -475 -117 -2 -2 1 -9 5
-17 6 -10 27 -7 102 13 201 54 504 117 729 151 49 7 115 17 130 20 8 2 42 6
75 10 102 11 129 15 165 20 19 2 64 7 100 10 36 3 85 8 110 10 252 25 580 39
580 26 0 -22 144 -224 211 -295 167 -179 392 -327 649 -426 47 -18 94 -36 105
-41 67 -27 307 -89 442 -114 16 -3 37 -7 48 -9 11 -2 45 -7 75 -12 30 -4 58
-9 63 -10 4 -1 21 -2 37 -3 l30 -1 -20 -37 c-11 -21 -20 -47 -20 -59 0 -11
-15 -37 -33 -58 -55 -62 -98 -141 -137 -254 l-36 -107 -80 -31 c-297 -115
-548 -87 -783 88 -94 71 -158 142 -290 328 -25 34 -63 74 -85 87 -22 14 -49
34 -60 44 -11 11 -34 28 -50 40 l-31 21 42 45 c72 77 83 167 24 198 -38 19
-152 13 -246 -14 -38 -11 -70 -19 -71 -18 -1 1 -4 13 -6 26 -3 23 8 29 134 85
156 69 158 71 153 178 -4 78 -35 175 -78 239 -29 45 -75 77 -94 66 -5 -3 -27
-8 -49 -11 -116 -18 -329 -68 -404 -96 -182 -67 -246 -94 -265 -111 -39 -38
-20 -210 35 -320 18 -34 72 -99 83 -99 2 0 27 4 55 10 28 5 73 12 99 15 26 3
72 10 102 16 75 12 76 12 89 -15 10 -22 8 -27 -23 -45 -26 -15 -37 -31 -49
-70 -16 -53 -15 -67 4 -116 17 -46 38 -63 83 -71 48 -8 139 -62 161 -96 8 -13
26 -54 40 -93 15 -38 31 -80 38 -92 8 -17 8 -26 0 -36 -18 -22 19 -152 98
-347 40 -96 101 -260 136 -364 35 -105 70 -193 77 -198 6 -4 23 -7 37 -7 39 1
152 42 163 60 8 13 -1 40 -38 115 -26 55 -63 135 -82 179 l-33 79 52 -50 c137
-133 293 -210 500 -250 108 -21 313 -21 448 0 156 25 144 25 143 -9 -1 -32
-10 -259 -19 -465 -3 -79 -10 -127 -17 -132 -7 -4 -28 -8 -47 -9 l-35 -1 29
-13 c28 -12 29 -13 9 -23 -15 -8 -23 -8 -32 1 -10 9 -11 8 -6 -8 5 -15 4 -17
-3 -6 -6 8 -8 21 -4 29 4 12 -2 14 -27 10 -28 -4 -35 1 -73 50 -22 30 -35 51
-27 47 8 -4 4 2 -8 14 -24 23 -42 29 -24 7 16 -19 -1 -142 -19 -131 -5 3 -25
8 -45 10 l-36 5 15 -27 c12 -25 12 -30 -9 -63 -66 -105 -103 -180 -89 -180 7
0 14 -5 14 -11 0 -5 4 -8 9 -5 5 3 12 -1 15 -10 4 -11 13 -14 27 -11 12 3 22
0 26 -9 3 -8 11 -14 17 -14 16 0 114 -49 122 -61 3 -5 8 -7 12 -5 4 2 13 -2
20 -10 10 -11 8 -15 -8 -24 -17 -9 -33 -5 -87 24 -53 28 -70 33 -85 25 -14 -8
-23 -8 -31 0 -6 6 -7 11 -2 11 12 0 -108 60 -171 86 -24 10 -44 23 -44 29 0
12 -109 70 -126 67 -13 -3 -90 65 -83 73 3 3 14 -3 25 -13 10 -9 30 -22 44
-29 14 -7 41 -22 60 -35 40 -26 37 -21 -36 67 -102 120 -98 117 -94 58 2 -36
-1 -38 -33 -22 -18 10 -17 7 6 -14 19 -19 27 -36 27 -61 0 -23 6 -38 17 -45
14 -8 11 -12 -21 -25 -107 -45 -156 -48 -156 -12 0 6 5 4 11 -4 8 -13 10 -12
7 4 -6 36 -50 57 -137 65 -44 4 -81 3 -81 -1 0 -4 29 -29 65 -55 35 -27 64
-53 65 -58 0 -6 -28 -17 -62 -24 -35 -7 -66 -15 -70 -18 -12 -7 10 -25 82 -68
36 -21 73 -45 82 -53 9 -7 22 -11 29 -6 8 5 10 3 4 -6 -5 -9 -22 -10 -59 -5
-28 4 -69 9 -91 11 -22 3 -46 7 -53 9 -8 3 -22 -18 -39 -55 -14 -33 -30 -60
-35 -60 -5 0 -6 -5 -2 -12 4 -7 3 -8 -5 -4 -9 6 -9 11 0 22 8 10 8 14 1 14 -7
0 -9 7 -5 17 4 9 2 14 -3 11 -5 -4 -9 13 -9 36 -1 42 -27 84 -50 81 -9 -1 -68
-11 -119 -21 -10 -2 -20 -5 -21 -6 -1 -2 -23 -26 -49 -55 -46 -50 -47 -53 -40
-98 5 -33 10 -45 20 -41 8 3 14 -1 14 -10 0 -9 6 -14 13 -11 6 2 29 10 50 18
20 7 37 17 37 22 0 4 -5 5 -12 1 -7 -4 -8 -3 -4 5 6 9 11 9 22 0 11 -9 18 -9
29 1 26 22 28 4 3 -42 -46 -85 -120 -198 -131 -198 -7 0 -7 4 1 12 7 7 12 19
12 27 0 14 -2 14 -10 1 -8 -11 -9 -8 -4 12 4 18 2 28 -5 28 -6 0 -11 7 -11 15
0 21 -10 18 -50 -15 -26 -22 -30 -30 -17 -30 9 0 17 -5 17 -11 0 -6 -9 -8 -21
-4 -26 9 -57 -7 -111 -57 l-41 -37 34 9 c48 14 59 12 27 -6 -35 -18 -36 -27
-3 -14 14 5 25 7 25 4 0 -4 6 -1 14 5 12 10 23 7 55 -15 23 -15 41 -32 41 -39
0 -6 -20 -38 -45 -69 -25 -32 -45 -61 -45 -63 0 -3 11 -3 25 0 25 4 25 4 8
-17 -13 -15 -14 -17 -2 -8 9 6 18 9 22 6 10 -10 48 16 40 29 -5 9 -3 9 8 1 18
-14 65 -1 61 17 -3 10 -1 11 8 3 8 -8 19 -9 39 -1 29 10 61 5 61 -11 0 -5 -11
-14 -25 -20 -14 -6 -25 -20 -25 -30 0 -9 -8 -28 -17 -41 -9 -14 -11 -21 -5
-17 8 5 12 -3 12 -24 0 -38 29 -73 50 -59 13 8 13 10 0 19 -13 8 -13 10 1 10
9 0 19 9 22 20 3 11 1 20 -4 20 -5 0 -9 5 -9 11 0 5 5 7 10 4 12 -7 49 33 50
52 0 13 100 14 100 1 0 -5 5 -8 11 -8 5 0 7 6 3 13 -6 8 -3 8 9 -2 9 -7 24
-11 32 -7 17 6 21 56 4 56 -5 0 -7 5 -4 10 4 6 12 7 18 3 7 -4 5 2 -3 12 -9
11 -10 16 -2 11 11 -7 16 15 15 61 -1 31 15 -1 26 -53 9 -40 18 -58 32 -61 10
-3 17 -9 14 -13 -3 -5 9 -7 27 -5 18 2 37 4 42 4 4 1 6 14 4 31 -5 31 6 41 16
15 3 -8 13 -15 21 -15 9 0 13 -4 10 -10 -9 -14 8 -12 24 2 8 7 11 8 8 2 -3 -6
0 -11 8 -11 8 0 12 4 9 9 -3 4 -1 8 3 8 5 0 8 13 6 30 -2 16 -4 43 -6 59 -2
19 1 27 7 23 24 -13 88 -78 97 -97 9 -17 8 -18 -3 -4 -7 9 -19 14 -26 12 -7
-3 -10 1 -6 10 3 8 1 18 -5 22 -6 3 -11 2 -11 -4 0 -6 -16 -43 -35 -83 -20
-39 -33 -77 -31 -82 3 -7 5 -6 5 1 1 19 38 36 47 21 4 -6 3 -8 -3 -5 -6 4 -15
-5 -22 -19 -10 -23 -7 -22 36 13 27 21 52 44 56 51 10 14 37 16 37 2 0 -5 6
-10 14 -10 8 0 16 -6 18 -12 4 -12 6 14 9 116 1 20 4 24 10 15 6 -10 10 -7 17
11 5 14 8 28 5 33 -2 4 0 6 5 5 5 -2 21 9 34 23 14 15 35 32 47 38 12 7 19 16
16 22 -4 5 -3 9 2 8 23 -4 43 2 38 11 -4 6 -3 10 2 9 4 -1 21 3 37 10 20 8 26
16 22 28 -5 12 -4 13 7 5 8 -7 16 -11 18 -9 2 1 -5 -5 -16 -13 -54 -40 -109
-98 -127 -134 -27 -53 -36 -150 -16 -174 8 -9 20 -31 27 -48 11 -28 10 -36
-11 -68 -25 -38 -31 -39 -130 -21 l-35 7 -2 -148 -2 -148 21 25 c12 13 19 18
15 12 -7 -14 -15 -53 -11 -53 1 0 13 14 25 31 13 18 17 29 10 25 -8 -4 -3 2
11 13 14 11 21 21 16 21 -5 0 0 8 10 18 30 26 51 65 48 85 -2 12 2 17 11 13 8
-3 22 8 34 27 16 25 21 28 26 16 3 -9 5 -20 4 -25 -1 -5 -1 -43 0 -84 1 -65 3
-73 15 -57 19 24 24 21 19 -10 -3 -24 -2 -25 6 -8 5 11 18 28 30 39 11 10 18
23 15 27 -3 5 2 12 10 15 9 3 14 10 11 14 -3 4 2 10 10 14 8 3 15 10 15 16 0
6 -5 8 -10 5 -5 -3 -10 0 -10 8 0 8 -13 20 -29 27 -20 8 -28 17 -24 27 3 8 8
10 12 5 10 -17 65 -18 79 -2 8 8 11 9 7 2 -7 -13 4 -16 29 -6 19 7 21 50 4 57
-10 3 -10 8 1 18 9 9 11 9 7 2 -4 -8 -1 -13 8 -13 9 0 16 4 16 9 0 4 11 7 25
6 14 -2 25 1 25 6 0 6 5 7 10 4 6 -3 10 -2 10 4 0 6 7 7 17 4 9 -4 14 -2 10 3
-3 5 7 10 21 9 18 0 26 5 24 14 -3 12 0 12 12 2 13 -11 16 -8 22 16 4 15 11
33 16 40 5 7 6 18 2 25 -5 8 -1 8 11 -2 17 -14 18 -14 5 10 -7 14 -13 26 -12
28 1 1 2 3 1 5 -5 22 -5 65 1 62 12 -8 6 21 -9 38 -7 9 -46 33 -88 54 -41 21
-96 57 -121 81 -25 23 -50 42 -55 42 -4 0 -6 4 -3 9 3 4 -3 16 -14 26 -11 10
-17 22 -14 26 3 5 0 9 -5 9 -6 0 -11 9 -11 20 0 11 -4 20 -10 20 -5 0 -10 8
-10 18 0 10 -6 24 -12 31 -8 9 -9 11 -1 7 7 -4 11 6 11 29 0 19 -4 35 -9 35
-5 0 -9 6 -9 14 0 8 -6 17 -12 19 -10 4 -10 6 -1 6 6 1 15 -3 18 -9 10 -16 28
-11 21 6 -3 8 -2 12 4 9 6 -3 10 -1 10 4 0 6 -5 11 -12 11 -6 0 -1 8 10 19 22
18 31 38 13 26 -5 -3 -12 -1 -16 4 -3 6 4 8 16 6 16 -3 19 -1 14 13 -4 12 -3
14 5 6 8 -8 6 -21 -6 -47 -17 -36 -17 -36 7 -56 l24 -19 -28 5 c-29 6 -29 5
-26 -43 1 -27 7 -60 13 -74 19 -47 67 -110 78 -104 6 4 8 2 4 -4 -11 -18 50
-77 135 -132 44 -29 83 -49 86 -46 3 2 14 -4 26 -15 24 -22 45 -26 28 -5 -9
11 -9 16 0 22 8 4 9 3 5 -4 -4 -7 -2 -12 3 -12 13 0 15 31 4 46 -5 5 -4 6 2 1
13 -10 21 -9 23 6 6 44 10 55 30 75 12 12 22 18 22 13 0 -5 14 -12 30 -16 17
-4 30 -11 30 -16 0 -6 5 -7 12 -3 7 4 8 3 4 -4 -4 -7 -17 -10 -30 -6 -19 4
-27 -3 -52 -48 -44 -80 -46 -94 -18 -113 14 -9 30 -13 36 -9 7 4 8 3 4 -4 -4
-7 -19 -9 -36 -5 -21 4 -30 2 -30 -7 0 -9 -6 -7 -20 5 -19 17 -20 17 -28 -5
-5 -13 -5 -42 -1 -64 5 -23 8 -45 9 -51 0 -5 5 -3 10 5 8 12 10 10 10 -9 0
-29 9 -23 15 9 9 48 21 36 73 -72 2 -5 -15 -8 -38 -8 l-43 0 8 -52 c4 -29 9
-60 10 -68 4 -28 16 -105 20 -125 2 -11 4 -31 5 -45 1 -23 2 -23 10 -5 5 11 9
14 9 8 2 -28 28 -11 46 30 10 23 29 59 42 80 14 22 22 45 19 53 -4 9 -1 12 5
9 6 -4 13 2 16 14 4 18 8 19 27 9 11 -7 27 -11 35 -9 7 1 10 -2 6 -8 -4 -7 4
-10 19 -9 15 1 26 5 26 8 0 3 16 5 35 6 19 0 35 -1 35 -3 0 -2 -22 -38 -48
-81 -71 -114 -67 -106 -44 -93 31 16 46 13 27 -5 -9 -9 -13 -19 -10 -22 3 -4
10 0 16 8 8 13 10 13 19 0 6 -10 10 -11 10 -2 0 6 8 12 18 12 13 0 14 -2 3 -9
-7 -5 -9 -11 -4 -14 5 -3 17 3 26 14 19 22 26 23 47 8 13 -9 12 -10 -2 -5 -10
3 -18 1 -18 -5 0 -12 35 -7 130 16 8 2 23 4 33 4 10 1 16 5 12 10 -3 5 -1 13
5 16 6 4 10 3 9 -2 -3 -20 2 -27 11 -13 9 13 10 13 10 0 0 -9 -6 -24 -13 -35
-8 -11 -31 -51 -52 -89 -29 -53 -34 -68 -20 -62 11 4 25 0 35 -9 12 -11 20
-13 25 -5 3 5 11 8 16 5 5 -4 9 2 9 12 0 15 2 15 9 4 8 -12 13 -12 36 3 15 10
25 14 21 8 -3 -5 1 -13 10 -16 9 -4 13 -2 8 5 -8 14 -6 13 64 -24 42 -22 52
-24 52 -12 0 10 -5 13 -12 9 -7 -4 -8 -3 -4 4 4 7 4 17 0 24 -4 7 -9 24 -10
37 -2 14 -8 27 -14 29 -5 2 -8 8 -4 13 3 5 2 9 -3 9 -4 0 -9 12 -10 26 0 15
-5 29 -10 33 -16 12 -12 29 7 34 11 3 18 2 15 -3 -3 -4 2 -10 10 -14 8 -3 15
0 15 7 0 8 3 9 8 1 4 -6 28 -18 54 -27 l48 -16 -16 25 c-9 13 -13 24 -10 24 4
0 1 10 -6 23 -6 12 -13 27 -14 32 -1 6 -8 24 -15 40 -7 17 -12 33 -11 38 1 4
-3 7 -9 7 -5 0 -8 3 -6 8 3 4 0 18 -6 32 -5 14 -11 42 -12 63 -1 23 -9 43 -21
53 -10 8 -13 12 -5 8 11 -5 13 -3 8 10 -4 10 -7 24 -7 32 0 9 -4 13 -9 9 -6
-3 -8 4 -6 15 2 11 -1 20 -7 20 -6 0 -8 3 -5 7 4 3 -4 25 -18 48 -13 23 -22
45 -19 48 9 8 -18 49 -58 88 -24 24 -33 40 -27 48 5 6 6 9 2 6 -7 -6 -63 44
-63 57 0 4 6 8 13 8 6 0 30 10 53 22 l41 21 38 -29 c26 -19 40 -25 43 -16 2 6
10 12 18 12 9 0 12 -5 9 -10 -5 -8 13 -10 54 -7 34 3 61 2 61 -2 0 -4 -28 -8
-62 -10 -115 -5 -173 -8 -182 -10 -5 0 4 -11 20 -23 16 -13 46 -40 67 -60 21
-21 42 -36 47 -33 6 3 7 -1 4 -9 -3 -9 -11 -13 -16 -10 -6 4 2 -14 17 -40 35
-59 74 -171 70 -202 -1 -13 2 -21 6 -18 5 3 9 -8 9 -24 0 -29 26 -62 48 -62 7
0 12 -5 12 -11 0 -7 10 -9 25 -7 13 3 22 1 19 -3 -3 -5 3 -10 13 -11 10 0 23
-2 28 -3 11 -2 85 -45 85 -50 0 -2 -23 -11 -51 -20 -66 -22 -58 -28 14 -11 60
14 76 8 30 -12 -26 -11 -26 -11 -3 -6 47 10 53 9 56 -11 9 -51 52 -166 57
-154 4 10 6 8 6 -4 1 -10 6 -17 13 -15 14 5 30 58 17 58 -5 0 -9 5 -9 11 0 5
4 8 10 4 5 -3 18 11 29 32 11 21 20 33 21 26 0 -12 39 -11 59 1 7 5 10 15 6
25 -5 12 -3 13 5 5 13 -13 53 -6 44 7 -3 5 -9 7 -14 4 -4 -3 -6 4 -3 15 3 11
0 20 -6 20 -6 0 -11 5 -11 11 0 6 -11 33 -24 59 -13 27 -22 51 -19 54 4 3 2 6
-4 6 -6 0 -13 9 -16 20 -5 19 -4 19 22 -1 15 -11 49 -62 75 -114 50 -99 69
-117 86 -85 6 11 8 20 6 20 -3 0 3 20 14 46 11 25 15 42 10 39 -6 -3 -10 0
-10 9 0 8 7 13 18 11 9 -1 24 1 33 6 26 13 41 -4 29 -35 -18 -47 -12 -65 11
-33 11 15 26 27 32 27 6 0 2 -7 -9 -15 -14 -10 -15 -14 -5 -15 11 0 9 -4 -5
-14 -10 -8 -16 -17 -13 -21 12 -12 95 109 91 133 -2 14 -8 20 -15 16 -9 -5 -9
-4 0 6 12 13 7 43 -7 35 -4 -2 -5 7 -2 22 4 19 2 24 -8 18 -8 -5 -11 -4 -6 3
3 5 0 13 -6 15 -9 4 -8 6 3 6 16 1 71 -106 83 -162 4 -15 10 -25 15 -23 14 9
35 -52 23 -67 -11 -12 -12 -17 -12 -40 0 -10 -17 -14 -57 -16 -32 -1 -59 -4
-62 -7 -2 -2 2 -30 9 -61 16 -67 14 -57 24 -108 4 -22 16 -48 27 -58 17 -16
19 -16 28 2 6 10 7 21 4 25 -3 3 -1 6 5 6 7 0 12 7 12 15 0 8 5 15 11 15 5 0
8 4 5 9 -4 5 0 12 6 14 10 4 9 8 -2 16 -12 9 -11 11 8 11 13 0 20 4 17 10 -3
5 -1 10 4 10 6 0 11 7 11 15 0 8 3 14 8 14 19 -3 25 2 12 11 -8 5 -10 10 -5
10 33 0 35 -17 10 -80 -29 -75 -30 -80 -9 -80 8 0 12 -4 9 -10 -9 -14 8 -12
24 3 11 9 13 9 7 0 -5 -9 0 -13 14 -13 13 0 18 4 15 11 -4 6 2 5 13 -2 17 -11
24 -10 38 2 11 9 15 9 10 2 -4 -8 -2 -13 7 -13 23 0 28 12 9 26 -15 12 -15 12
6 7 21 -5 22 -4 11 21 -7 14 -16 26 -21 26 -4 0 -8 6 -8 13 0 7 -11 29 -25 50
-14 20 -21 37 -15 37 5 0 10 -5 10 -11 0 -6 9 -9 20 -6 11 3 20 1 20 -5 0 -5
10 -6 21 -3 14 5 19 3 15 -3 -3 -6 4 -12 16 -14 15 -2 28 5 39 20 17 24 15 62
-3 62 -6 0 -8 6 -5 14 3 8 0 20 -8 26 -7 6 -11 20 -8 30 3 12 0 20 -8 20 -7 0
-9 3 -6 6 4 4 13 1 22 -6 13 -11 14 -10 9 6 -4 10 -11 25 -17 32 -5 6 -6 12
-2 12 4 0 0 12 -10 26 -11 18 -13 24 -4 19 11 -6 12 -5 2 6 -7 7 -13 21 -13
31 0 10 -4 18 -8 18 -8 0 -32 43 -32 55 0 2 7 2 16 -2 14 -5 15 -3 6 14 -11
20 -7 33 10 33 5 0 6 -5 2 -12 -5 -8 -2 -9 10 -5 10 4 20 7 22 7 3 0 2 5 -1
10 -4 6 -3 10 2 9 20 -4 27 2 13 12 -12 9 -13 10 0 7 23 -7 61 33 55 56 -3 12
-2 15 1 8 5 -10 9 -10 20 -1 8 6 11 16 7 22 -3 6 -1 7 5 3 7 -4 12 -1 12 7 0
8 7 17 15 21 8 3 15 12 15 21 0 8 5 15 11 15 6 0 8 7 5 16 -3 8 -2 12 4 9 6
-3 10 -2 10 4 0 5 -3 11 -7 14 -5 2 -3 2 4 1 13 -3 35 50 25 62 -4 4 -1 4 6 0
6 -4 12 -2 12 3 0 6 -7 11 -16 11 -8 0 -13 4 -10 9 3 4 -28 24 -69 42 -72 33
-92 49 -60 49 8 0 15 -5 15 -11 0 -5 4 -7 10 -4 6 3 10 1 10 -5 0 -7 7 -10 15
-6 8 3 15 2 15 -2 0 -10 51 -32 61 -26 5 3 9 1 9 -4 0 -6 7 -13 16 -16 8 -3
12 -2 9 4 -3 6 -2 10 4 10 10 0 9 19 -3 38 -4 7 -4 12 1 11 20 -3 27 2 13 11
-12 8 -12 10 5 10 17 0 17 2 5 10 -8 5 -10 10 -5 10 6 0 3 5 -5 10 -10 6 -11
10 -2 10 6 0 12 11 12 25 0 16 -6 25 -16 25 -10 0 -14 5 -10 15 5 13 -2 15
-37 10 -83 -11 -118 -11 -126 -1 -7 8 10 11 55 9 35 0 64 2 64 7 0 4 20 5 45
3 24 -3 50 -3 57 -1 7 3 16 5 20 4 4 0 14 8 23 19 9 11 13 14 10 7 -6 -10 2
-12 36 -7 36 6 41 4 31 -8 -10 -12 -6 -14 25 -11 69 5 112 12 124 20 7 4 9 3
6 -3 -4 -6 0 -14 9 -17 9 -3 12 -2 9 5 -5 6 26 9 89 8 53 -1 96 -5 96 -10 0
-5 7 -6 16 -2 13 5 13 7 2 14 -8 5 -9 9 -2 9 6 0 17 -7 24 -15 10 -12 16 -13
26 -4 11 9 14 8 14 0 0 -7 4 -10 9 -6 5 3 12 1 16 -5 3 -5 15 -10 25 -10 10 0
23 -6 27 -12 13 -21 69 -38 83 -24 8 8 9 6 4 -9 -4 -11 -4 -17 0 -14 12 11 17
77 6 84 -15 9 -12 35 3 35 15 0 17 51 2 62 -6 5 -5 8 2 8 15 0 13 50 -2 50 -5
0 -4 4 3 9 15 9 13 42 -3 53 -6 5 -5 8 3 8 6 0 12 5 12 11 0 5 -6 7 -12 3 -10
-6 -10 -5 -1 7 10 12 10 18 1 27 -7 7 -8 12 -2 12 14 0 5 63 -10 72 -8 6 -8 8
1 8 6 0 11 9 10 19 -1 12 -6 17 -16 13 -9 -3 -12 -1 -7 6 11 18 -12 24 -36 8
-49 -30 -62 -28 -123 19 -32 25 -62 45 -67 45 -5 0 -6 -12 -3 -27 3 -16 9 -44
12 -63 l6 -35 -30 28 -29 27 -24 -57 c-20 -51 -38 -82 -75 -132 -22 -31 -108
-112 -112 -107 -6 6 43 67 63 79 17 10 18 33 2 41 -7 3 -3 3 10 0 16 -4 22 -1
22 11 0 10 -5 13 -12 9 -7 -4 -8 -3 -4 4 4 6 14 8 23 5 12 -5 15 -2 10 10 -3
9 -3 17 2 17 11 0 35 59 34 82 -1 12 3 16 10 11 16 -9 -8 23 -52 70 -19 20
-43 37 -53 37 -10 0 -18 5 -18 11 0 5 5 7 10 4 22 -14 8 13 -22 41 -22 20 -29
24 -25 11 4 -10 7 -28 7 -40 0 -18 2 -19 10 -7 8 13 10 12 10 -2 0 -10 -4 -19
-10 -19 -32 -4 -45 -2 -43 8 1 7 -18 13 -47 15 -28 1 -50 0 -50 -3 0 -15 -47
-26 -66 -16 -10 7 -34 17 -53 23 l-33 12 6 -28 c4 -23 2 -28 -9 -23 -10 3 -15
21 -16 52 0 25 -2 71 -4 101 -1 30 -6 141 -9 245 -4 105 -9 228 -12 275 -4 77
-5 276 -2 470 4 300 -44 476 -167 608 -30 33 -55 68 -55 79 0 10 -9 36 -20 58
-24 46 -23 42 -7 42 72 1 419 66 556 104 504 140 856 399 1024 752 l32 67 155
-5 c85 -4 171 -8 190 -9 19 -2 82 -7 140 -11 58 -4 119 -8 135 -10 17 -2 57
-6 90 -10 67 -6 201 -22 255 -29 19 -3 58 -8 85 -12 28 -4 59 -8 70 -9 28 -4
97 -15 120 -19 11 -2 54 -9 95 -16 115 -19 383 -76 500 -105 135 -34 131 -33
156 -40 14 -5 23 -1 27 9 7 17 -12 24 -143 56 -47 12 -92 23 -100 25 -38 11
-460 95 -505 101 -27 3 -52 7 -55 9 -3 1 -30 6 -61 9 -31 4 -65 8 -75 10 -33
6 -97 15 -153 22 -30 3 -62 7 -71 9 -9 2 -50 6 -91 10 -41 3 -90 8 -109 10
-38 4 -169 15 -240 21 -63 4 -318 17 -357 17 -18 0 -33 5 -33 11 0 6 11 42 24
81 l25 69 53 3 c83 4 717 3 773 -1 28 -2 102 -7 165 -10 63 -4 133 -9 155 -11
22 -2 72 -7 110 -11 39 -3 84 -7 100 -9 39 -4 169 -19 175 -20 3 -1 30 -5 60
-9 52 -7 205 -32 260 -42 84 -15 98 -15 105 -4 10 16 5 19 -56 30 -30 6 -65
12 -79 15 -14 3 -88 14 -165 25 -77 11 -154 22 -171 25 -17 2 -57 7 -90 10
-32 3 -75 8 -94 10 -19 3 -69 7 -110 10 -41 3 -95 8 -120 10 -153 13 -380 19
-698 19 -363 0 -363 0 -357 20 35 125 67 345 81 559 18 295 6 619 -28 706 -5
14 -9 27 -8 29 1 1 -1 20 -5 42 -4 25 -3 46 4 54 13 16 -16 101 -84 240 -52
106 -101 183 -166 258 -52 59 -144 168 -172 202 -18 22 -17 26 4 127 19 87 23
136 23 294 1 216 -16 329 -80 525 -41 124 -40 123 -146 122 -153 -2 -373 -65
-579 -167 -40 -19 -73 -34 -74 -33 -1 2 -41 82 -88 178 -99 202 -173 322 -218
349 -18 11 -62 27 -98 37 -36 9 -73 24 -83 31 -32 28 -74 26 -110 -5 -18 -15
-50 -38 -70 -51 -69 -41 -128 -175 -128 -289 0 -62 -1 -64 -22 -58 -13 3 -51
13 -84 22 -48 12 -61 20 -59 32 2 10 4 27 4 40 1 12 6 22 13 22 21 0 89 53
104 81 49 95 -4 174 -166 253 -121 59 -330 90 -440 65z m-385 -5611 c-2 -68
-7 -204 -10 -303 -3 -99 -8 -220 -10 -270 -4 -99 -15 -344 -20 -473 -4 -94
-10 -116 -14 -45 -2 27 -4 71 -6 98 -2 28 -6 165 -10 305 -3 140 -11 282 -17
315 -10 58 -12 306 -3 356 13 67 19 80 51 109 19 16 37 30 39 30 3 0 3 -55 0
-122z m1079 100 c44 -47 58 -80 62 -156 6 -125 6 -245 -1 -272 -4 -14 -9 -90
-11 -170 -7 -312 -14 -444 -24 -454 -21 -21 -20 -29 -34 439 -15 471 -18 625
-11 625 3 0 12 -6 19 -12z m-498 -735 c-2 -82 -5 -178 -5 -214 -1 -68 -7 -77
-56 -83 -22 -3 -34 -17 -30 -36 2 -11 0 -20 -5 -20 -5 0 -9 8 -8 18 0 9 -3
122 -7 250 l-8 232 63 0 62 0 -6 -147z m-1296 -403 c13 -9 13 -10 0 -10 -8 0
-22 5 -30 10 -13 9 -13 10 0 10 8 0 22 -5 30 -10z m2570 -204 c0 -2 -8 -10
-17 -17 -16 -13 -17 -12 -4 4 13 16 21 21 21 13z m-1876 -97 c-8 -14 -21 -11
-21 5 0 8 6 12 14 9 7 -3 10 -9 7 -14z m1236 1 c0 -5 -2 -10 -4 -10 -3 0 -8 5
-11 10 -3 6 -1 10 4 10 6 0 11 -4 11 -10z m-9 -27 c13 -16 12 -17 -3 -4 -17
13 -22 21 -14 21 2 0 10 -8 17 -17z m-2177 -53 c-6 -6 -15 -5 -24 1 -12 9 -12
10 4 5 14 -5 17 -3 12 11 -6 15 -5 16 5 6 8 -8 10 -16 3 -23z m-354 -54 c0 -3
-4 -8 -10 -11 -5 -3 -10 -1 -10 4 0 6 5 11 10 11 6 0 10 -2 10 -4z m1816 -23
c-7 -16 6 -17 23 0 11 10 12 9 6 -2 -5 -9 -3 -12 6 -9 8 3 13 11 11 17 -1 8 2
9 10 5 7 -5 18 -9 24 -10 15 -2 108 -93 101 -100 -3 -3 -30 -11 -60 -18 -41
-10 -59 -10 -68 -2 -9 8 -10 8 -5 -1 5 -9 -1 -13 -16 -14 -13 -1 -32 -2 -43
-3 -11 0 -26 -5 -33 -9 -10 -7 -12 0 -8 30 2 21 6 45 8 53 1 8 -2 14 -9 13 -7
-2 -5 10 7 30 19 32 57 49 46 20z m-785 -20 c13 -36 4 -60 -16 -43 -15 13 -20
51 -8 63 10 11 13 9 24 -20z m-851 -3 c0 -5 -2 -10 -4 -10 -3 0 -8 5 -11 10
-3 6 -1 10 4 10 6 0 11 -4 11 -10z m2600 -36 c0 -8 -19 -13 -24 -6 -3 5 1 9 9
9 8 0 15 -2 15 -3z m-1842 -17 c-9 -6 -4 -7 14 -4 15 2 25 0 22 -4 -3 -5 -1
-9 5 -9 5 0 12 6 14 13 3 7 6 8 6 1 1 -6 -25 -30 -56 -53 l-58 -42 42 40 c43
42 45 54 5 25 -12 -8 -27 -12 -34 -8 -6 4 -8 3 -5 -3 4 -6 0 -14 -9 -17 -8 -3
-13 -2 -10 2 3 5 -8 6 -24 4 -17 -2 -27 -8 -24 -13 3 -5 -3 -6 -13 -2 -14 5
-7 12 32 29 49 22 51 28 10 25 -19 -1 -19 -1 2 11 25 15 101 20 81 5z m-288
-45 c0 -11 -39 -12 -45 -1 -4 5 5 9 19 9 14 0 26 -4 26 -8z m1110 4 c0 -3 -4
-8 -10 -11 -5 -3 -10 -1 -10 4 0 6 5 11 10 11 6 0 10 -2 10 -4z m1464 -4 c3
-5 -1 -9 -9 -9 -8 0 -12 4 -9 9 3 4 7 8 9 8 2 0 6 -4 9 -8z m-2409 -42 c3 -6
-1 -7 -9 -4 -18 7 -21 14 -7 14 6 0 13 -4 16 -10z m2922 -12 c-3 -8 -6 -5 -6
6 -1 11 2 17 5 13 3 -3 4 -12 1 -19z m-2962 3 c3 -5 2 -12 -3 -15 -5 -3 -9 1
-9 9 0 17 3 19 12 6z m985 -26 c0 -8 -4 -15 -10 -15 -5 0 -7 7 -4 15 4 8 8 15
10 15 2 0 4 -7 4 -15z m-1091 -26 c-14 -8 -29 -3 -29 11 0 4 9 6 21 3 15 -4
17 -8 8 -14z m224 -1 c-37 -42 -73 -85 -87 -103 -12 -17 -13 -17 -20 1 -4 10
-4 15 0 12 3 -4 13 -1 20 7 17 17 18 29 2 19 -8 -4 -10 -3 -5 2 5 5 14 9 20 9
7 1 11 7 9 14 -1 7 1 10 6 7 11 -6 53 40 45 48 -4 3 2 6 12 6 17 0 17 -1 -2
-22z m-42 -11 c-10 -9 -11 -8 -5 6 3 10 9 15 12 12 3 -3 0 -11 -7 -18z m871
-66 l-20 -41 21 0 c11 0 18 -3 15 -6 -8 -7 -118 -12 -118 -5 0 3 7 15 16 26
13 17 16 18 24 5 8 -12 10 -12 11 5 0 11 3 14 6 8 2 -7 12 -13 21 -13 8 0 13
3 10 6 -4 3 0 17 7 31 8 15 11 31 8 37 -4 7 -1 7 6 0 10 -9 8 -20 -7 -53z
m-92 -21 c0 -5 -5 -10 -11 -10 -5 0 -7 5 -4 10 3 6 8 10 11 10 2 0 4 -4 4 -10z
m340 -36 c3 0 13 -4 23 -8 9 -5 33 -6 51 -4 19 2 33 1 30 -3 -2 -4 0 -10 6
-14 5 -3 10 0 10 7 0 9 3 9 8 2 4 -6 19 -10 34 -10 15 1 32 -6 39 -15 6 -9 20
-14 30 -12 11 3 19 0 19 -6 0 -6 9 -11 20 -11 11 0 20 -4 20 -9 0 -5 9 -13 20
-16 16 -5 18 -10 9 -26 -5 -11 -14 -17 -19 -14 -6 3 -8 0 -5 -7 3 -7 0 -20 -5
-28 -8 -12 -15 -9 -43 20 -37 40 -91 80 -107 80 -5 0 -10 4 -10 8 0 5 -6 9
-12 10 -12 0 -80 23 -118 39 -8 3 -23 5 -32 4 -10 -1 -18 2 -18 8 0 6 7 7 17
4 12 -5 14 -3 8 7 -6 10 -4 11 6 4 8 -5 16 -9 19 -10z m-1103 -30 c-3 -3 -12
-4 -19 -1 -8 3 -5 6 6 6 11 1 17 -2 13 -5z m46 -7 c4 3 7 1 7 -5 0 -14 -2 -14
-24 -6 -9 3 -16 11 -16 16 0 7 5 6 13 -1 8 -6 17 -8 20 -4z m-798 -7 c-3 -5
-12 -10 -18 -10 -7 0 -6 4 3 10 19 12 23 12 15 0z m1155 4 c0 -8 -19 -13 -24
-6 -3 5 1 9 9 9 8 0 15 -2 15 -3z m-290 -14 c0 -5 -5 -10 -11 -10 -5 0 -7 5
-4 10 3 6 8 10 11 10 2 0 4 -4 4 -10z m95 1 c3 -5 2 -12 -3 -15 -5 -3 -9 1 -9
9 0 17 3 19 12 6z m1519 -18 c22 -43 86 -206 86 -217 -1 -6 -20 32 -43 85 -24
54 -49 104 -56 113 -7 9 -10 16 -6 16 4 0 2 7 -5 15 -8 10 -9 15 -1 15 6 0 17
-12 25 -27z m-1474 7 c0 -5 -2 -10 -4 -10 -3 0 -8 5 -11 10 -3 6 -1 10 4 10 6
0 11 -4 11 -10z m-1040 -20 c0 -5 -5 -10 -11 -10 -5 0 -7 5 -4 10 3 6 8 10 11
10 2 0 4 -4 4 -10z m2796 -75 c-1 -8 -5 -17 -8 -21 -5 -4 -4 16 1 34 3 9 9 -1
7 -13z m-3576 -19 c0 -2 -7 -7 -16 -10 -8 -3 -12 -2 -9 4 6 10 25 14 25 6z
m2033 -21 c-3 -9 -8 -14 -10 -11 -3 3 -2 9 2 15 9 16 15 13 8 -4z m-2093 -5
c0 -5 -5 -10 -11 -10 -5 0 -7 5 -4 10 3 6 8 10 11 10 2 0 4 -4 4 -10z m1560 0
c0 -5 -5 -10 -11 -10 -5 0 -7 5 -4 10 3 6 8 10 11 10 2 0 4 -4 4 -10z m-1060
-19 c0 -6 -4 -12 -8 -15 -5 -3 -9 1 -9 9 0 8 4 15 9 15 4 0 8 -4 8 -9z m1170
3 c0 -8 -19 -13 -24 -6 -3 5 1 9 9 9 8 0 15 -2 15 -3z m70 -4 c0 -5 -4 -10
-10 -10 -5 0 -10 5 -10 10 0 6 5 10 10 10 6 0 10 -4 10 -10z m57 -5 c0 -8 -4
-12 -9 -9 -5 3 -6 10 -3 15 9 13 12 11 12 -6z m38 5 c3 -5 1 -10 -4 -10 -6 0
-11 5 -11 10 0 6 2 10 4 10 3 0 8 -4 11 -10z m85 0 c0 -5 -5 -10 -11 -10 -5 0
-7 5 -4 10 3 6 8 10 11 10 2 0 4 -4 4 -10z m-1142 -25 c-3 -3 -9 2 -12 12 -6
14 -5 15 5 6 7 -7 10 -15 7 -18z m-70 1 c-10 -7 -16 -15 -14 -17 2 -2 -6 -13
-17 -24 -19 -20 -19 -20 -3 12 8 17 21 33 28 36 22 9 24 7 6 -7z m749 -31 c0
-8 -4 -15 -9 -15 -10 0 -11 14 -1 23 9 10 10 9 10 -8z m1998 -34 c3 -5 2 -12
-3 -15 -5 -3 -9 1 -9 9 0 17 3 19 12 6z m-38 -103 c-3 -8 -6 -5 -6 6 -1 11 2
17 5 13 3 -3 4 -12 1 -19z m-55 -36 c-7 -2 -10 -7 -7 -12 2 -4 -5 -16 -18 -26
l-22 -19 20 24 c11 13 19 25 18 27 -8 12 -1 24 9 18 9 -6 9 -9 0 -12z m38 14
c0 -3 -4 -8 -10 -11 -5 -3 -10 -1 -10 4 0 6 5 11 10 11 6 0 10 -2 10 -4z
m-2488 -58 c-8 -8 -9 -4 -5 13 4 13 8 18 11 10 2 -7 -1 -18 -6 -23z m728 12
c0 -5 -5 -10 -11 -10 -5 0 -7 5 -4 10 3 6 8 10 11 10 2 0 4 -4 4 -10z m155 0
c3 -5 1 -10 -4 -10 -6 0 -11 5 -11 10 0 6 2 10 4 10 3 0 8 -4 11 -10z m1336
-41 c-5 -13 -10 -19 -10 -12 -1 15 10 45 15 40 3 -2 0 -15 -5 -28z m169 5
c-21 -25 -48 -36 -56 -22 -4 6 -3 8 3 5 6 -4 21 2 33 13 28 24 37 26 20 4z
m-1703 -46 c-3 -8 -6 -5 -6 6 -1 11 2 17 5 13 3 -3 4 -12 1 -19z m-737 -14 c0
-8 -19 -13 -24 -6 -3 5 1 9 9 9 8 0 15 -2 15 -3z m167 -30 c-3 -3 -12 -4 -19
-1 -8 3 -5 6 6 6 11 1 17 -2 13 -5z m1933 -8 c0 -3 -4 -8 -10 -11 -5 -3 -10
-1 -10 4 0 6 5 11 10 11 6 0 10 -2 10 -4z m-220 -40 c0 -3 -4 -8 -10 -11 -5
-3 -10 -1 -10 4 0 6 5 11 10 11 6 0 10 -2 10 -4z m-785 -16 c-3 -5 -12 -10
-18 -10 -7 0 -6 4 3 10 19 12 23 12 15 0z m1378 -25 c-3 -9 -8 -14 -10 -11 -3
3 -2 9 2 15 9 16 15 13 8 -4z m195 -25 c-7 -11 -14 -17 -17 -15 -2 3 1 11 7
18 7 8 8 18 4 22 -4 5 -1 5 5 1 10 -5 10 -11 1 -26z m-338 -160 c0 -5 -2 -10
-4 -10 -3 0 -8 5 -11 10 -3 6 -1 10 4 10 6 0 11 -4 11 -10z"/>
<path d="M6793 1912 c-76 -53 -104 -79 -69 -66 11 4 13 0 9 -15 -7 -27 1 -27
27 2 19 20 21 20 14 2 -4 -11 -12 -27 -17 -35 -6 -8 3 -1 20 15 25 25 28 32
16 39 -12 6 -4 19 38 62 29 30 51 54 49 53 -3 0 -42 -26 -87 -57z"/>
<path d="M6538 1935 c-10 -13 -42 -36 -73 -51 l-55 -28 6 -80 c4 -45 6 -127 6
-183 0 -84 2 -103 14 -103 9 0 12 -4 9 -10 -3 -5 0 -10 7 -10 9 0 10 -3 2 -8
-6 -4 -15 -31 -19 -60 -8 -57 -3 -65 68 -114 14 -10 49 -59 78 -110 29 -51 72
-121 95 -155 23 -34 47 -86 54 -115 7 -29 19 -57 26 -61 17 -10 18 -40 2 -35
-7 3 -17 18 -23 34 -5 16 -12 31 -16 34 -14 12 -89 128 -89 139 0 6 -4 11 -10
11 -5 0 -10 6 -10 13 0 17 -75 135 -101 160 -15 14 -20 15 -24 5 -2 -7 -23
-69 -46 -138 -22 -69 -46 -134 -53 -145 -8 -11 -17 -35 -20 -53 -9 -38 -20
-47 -43 -33 -10 6 -12 11 -5 11 6 0 12 9 12 20 0 10 6 25 14 32 12 11 12 15 1
28 -11 13 -11 18 1 34 8 11 14 15 14 9 0 -7 -5 -15 -10 -18 -6 -4 -7 -11 -4
-17 11 -18 35 37 38 89 0 12 4 21 8 20 3 -1 6 0 6 3 0 3 5 17 11 31 7 19 6 30
-2 38 -9 9 -8 11 4 6 20 -8 33 33 17 52 -8 11 -7 12 6 7 9 -4 16 -3 14 2 -1 5
2 19 6 32 6 18 2 28 -16 44 -32 28 -113 64 -178 78 -30 7 -59 15 -65 18 -5 4
-25 5 -43 3 -26 -2 -32 0 -26 11 6 10 5 11 -7 2 -8 -6 -33 -10 -56 -9 -28 2
-40 -1 -37 -9 2 -6 -11 -35 -29 -65 -48 -80 -58 -95 -110 -160 -46 -58 -47
-60 -27 -71 11 -6 17 -16 14 -22 -4 -6 -3 -8 3 -5 23 14 207 -124 312 -235 35
-38 69 -68 74 -68 5 0 3 8 -4 18 -13 15 -12 16 2 4 14 -10 18 -10 23 4 8 22 8
26 -4 19 -5 -3 -10 -1 -10 4 0 12 35 10 47 -2 7 -8 -49 -63 -93 -92 -26 -17
-27 -17 -37 1 -18 32 -187 192 -269 254 -42 32 -75 60 -72 62 2 3 -2 5 -9 5
-6 0 -50 24 -96 52 -46 28 -88 51 -93 51 -5 0 -6 6 -2 13 4 6 4 9 0 5 -5 -4
-19 -3 -32 2 -22 9 -26 6 -41 -28 -30 -64 -95 -154 -159 -220 -61 -63 -61 -64
-51 -101 12 -38 66 -125 112 -178 l28 -31 45 44 c25 25 47 43 49 40 4 -3 -20
-96 -34 -133 -3 -7 2 -13 11 -13 9 0 16 -7 16 -16 0 -14 3 -14 15 -4 9 7 18
10 22 6 3 -3 0 -7 -8 -7 -8 -1 0 -5 16 -8 17 -4 38 -3 49 2 13 6 16 6 12 -2
-5 -7 1 -11 14 -11 20 0 21 -3 15 -55 -8 -59 5 -85 45 -88 11 -1 20 -4 20 -8
0 -4 9 -9 20 -12 11 -3 20 -1 20 4 0 5 -6 9 -12 9 -9 0 -10 2 -2 8 15 9 15 64
1 55 -6 -4 -7 -1 -2 8 5 7 8 29 8 49 -1 19 1 26 4 15 3 -11 8 -22 12 -25 4 -3
15 -23 23 -45 9 -22 21 -39 27 -38 6 2 11 -5 12 -15 0 -9 7 3 15 28 17 56 17
55 -3 39 -16 -12 -17 -12 -6 2 7 9 9 19 5 23 -4 4 0 6 8 4 18 -4 15 33 -3 44
-6 4 -8 10 -4 14 4 4 1 14 -6 22 -10 13 -9 14 3 7 8 -5 20 -10 25 -11 6 0 15
-2 22 -2 6 -1 18 -8 25 -14 28 -26 62 -41 66 -29 2 6 9 11 16 11 6 0 12 9 12
20 0 11 -3 20 -7 20 -4 0 -5 9 -2 20 3 11 1 20 -4 20 -6 0 -10 14 -11 32 0 17
-6 34 -12 38 -9 6 -9 9 -1 14 6 4 8 13 4 19 -3 7 3 3 15 -7 12 -11 20 -21 18
-24 -3 -2 20 -35 50 -73 47 -58 58 -67 73 -57 10 6 18 25 19 46 2 20 7 39 13
42 11 8 2 37 -18 61 -12 14 -12 17 2 22 9 4 15 1 15 -8 0 -8 4 -15 8 -15 5 0
23 -20 42 -45 31 -41 70 -60 70 -34 0 5 -4 7 -10 4 -6 -3 -7 1 -4 9 9 22 21
20 35 -6 17 -34 46 -58 67 -58 23 0 45 23 34 35 -4 5 2 5 13 2 l20 -7 -20 15
c-11 9 -18 18 -16 21 1 3 -7 18 -20 32 -14 17 -18 27 -11 30 7 2 10 8 7 12 -3
5 0 12 6 16 8 4 9 3 5 -4 -11 -19 7 -14 79 18 36 16 64 34 61 39 -4 5 -1 13 5
17 7 4 9 3 5 -4 -4 -7 5 -9 30 -5 20 3 39 2 43 -3 3 -5 29 -27 56 -49 89 -72
84 -69 82 -46 -1 12 -8 21 -17 21 -11 0 -12 2 -2 8 6 5 11 20 10 34 -1 15 -6
24 -11 21 -5 -3 -6 4 -2 17 5 17 4 21 -5 15 -9 -6 -11 -4 -5 6 5 7 10 24 11
37 3 23 2 23 -11 6 -13 -18 -14 -18 -15 -1 0 40 32 30 129 -41 30 -21 54 -22
63 -2 6 13 7 13 7 -2 1 -22 33 -13 62 18 19 20 21 27 10 33 -21 13 -3 32 25
27 13 -3 24 0 24 6 0 7 5 7 14 -1 11 -9 17 -6 31 15 34 53 25 71 -60 120 -69
39 -72 44 -49 98 5 14 4 17 -4 12 -7 -4 -12 -3 -12 3 0 10 46 9 57 -2 3 -4 15
-7 25 -7 10 0 18 -3 18 -7 0 -5 12 -21 26 -38 l26 -30 -8 30 c-4 17 -17 37
-28 45 -21 14 -58 52 -84 84 -11 13 -10 16 3 16 8 0 15 7 15 16 0 27 28 -9 42
-56 14 -46 65 -86 98 -77 11 3 18 1 14 -4 -3 -5 3 -9 13 -10 10 0 27 -2 38 -4
21 -4 -26 43 -118 116 -27 22 -44 39 -37 39 6 0 9 4 5 9 -3 6 3 8 14 6 24 -4
62 5 57 14 -9 14 11 31 37 33 26 2 36 13 19 20 -4 2 -20 19 -35 39 -27 36 -35
69 -18 69 5 0 16 3 25 6 9 3 16 1 16 -6 0 -6 -6 -8 -12 -4 -8 4 -8 2 1 -7 10
-11 15 -11 18 -1 3 6 12 12 21 12 23 1 53 25 44 35 -4 5 -1 5 6 1 7 -4 19 -2
27 4 8 7 15 9 15 6 0 -4 12 1 28 12 15 11 29 19 32 19 3 0 14 5 25 11 18 11
16 11 -10 6 -16 -4 -33 -12 -37 -18 -4 -6 -8 -7 -8 -2 0 5 -7 3 -15 -4 -8 -7
-15 -8 -15 -3 0 5 22 20 50 33 56 26 60 38 7 21 -19 -7 -43 -13 -53 -16 -10
-2 -50 -13 -89 -24 -43 -13 -71 -17 -73 -11 -2 6 -7 8 -12 5 -4 -3 -6 5 -2 17
3 13 1 19 -5 15 -7 -5 -9 1 -5 15 3 14 2 19 -6 14 -7 -4 -12 -3 -12 3 0 10 61
31 92 31 9 0 20 5 24 12 5 8 2 9 -9 5 -10 -3 -17 -2 -17 2 0 5 6 12 13 14 6 3
2 6 -10 6 -13 1 -25 2 -28 2 -2 1 -26 7 -52 14 -26 7 -49 18 -51 26 -3 12 -2
12 6 0 7 -9 16 -11 28 -6 11 5 23 7 28 6 5 -1 5 6 2 16 -5 13 -4 15 4 7 13
-13 50 -7 50 8 0 6 6 8 14 5 8 -3 13 0 12 7 -3 21 -40 54 -65 58 -14 1 -26 9
-27 16 -1 7 0 8 3 2 3 -6 15 -4 34 5 29 16 39 35 17 35 -6 0 -9 3 -5 6 3 4 0
13 -8 20 -11 12 -26 13 -76 5 -34 -6 -65 -14 -69 -18 -8 -10 -50 -144 -50
-161 0 -7 -10 -12 -22 -12 -80 -1 -184 -14 -190 -24 -4 -6 -13 -35 -19 -63 -7
-29 -16 -53 -21 -53 -5 0 -6 5 -3 10 3 6 1 10 -6 10 -8 0 -8 4 1 15 10 12 10
18 0 30 -9 11 -9 15 -1 15 7 0 9 5 4 13 -4 6 -8 18 -10 26 -1 8 -7 17 -13 21
-8 5 -10 19 -5 38 3 18 2 33 -5 37 -5 3 -8 10 -5 15 3 5 0 14 -7 22 -7 7 -15
22 -16 33 -2 11 -8 21 -12 23 -5 2 -6 10 -3 19 4 11 2 14 -5 9 -7 -4 -10 -2
-7 6 3 8 -4 23 -15 35 -11 12 -20 28 -20 34 0 7 -3 9 -7 5 -4 -3 -20 7 -37 23
l-31 29 -17 -23z m168 -277 c4 -7 4 -10 -1 -6 -4 4 -15 2 -24 -5 -14 -11 -14
-10 -2 6 16 20 18 21 27 5z m-75 -55 c13 -16 12 -17 -3 -4 -10 7 -18 15 -18
17 0 8 8 3 21 -13z m-28 -18 c-3 -9 -8 -14 -10 -11 -3 3 -2 9 2 15 9 16 15 13
8 -4z m-32 -28 c-6 -8 -8 -17 -4 -21 4 -4 0 -4 -10 0 -17 6 -17 7 0 20 23 17
28 18 14 1z m-53 -37 c-7 -11 -14 -16 -16 -10 -2 6 -9 7 -14 4 -7 -4 -8 -2 -4
5 4 6 11 9 16 6 5 -3 11 -1 15 5 3 5 8 10 11 10 2 0 -1 -9 -8 -20z m567 11
c-3 -5 -1 -12 5 -16 5 -3 10 -1 10 4 0 6 5 11 12 11 6 0 -1 -13 -17 -30 -21
-22 -32 -27 -45 -20 -32 17 -31 37 1 32 17 -2 29 0 28 4 -2 14 0 24 7 24 3 0
3 -4 -1 -9z m-600 -41 c-3 -5 -12 -10 -18 -10 -7 0 -6 4 3 10 19 12 23 12 15
0z m845 -50 c0 -5 -5 -10 -11 -10 -5 0 -7 5 -4 10 3 6 8 10 11 10 2 0 4 -4 4
-10z m-43 -26 c-3 -3 -12 -4 -19 -1 -8 3 -5 6 6 6 11 1 17 -2 13 -5z m-97
-148 c0 -3 -4 -8 -10 -11 -5 -3 -10 -1 -10 4 0 6 5 11 10 11 6 0 10 -2 10 -4z
m-765 -105 c3 -5 2 -12 -3 -15 -5 -3 -9 1 -9 9 0 17 3 19 12 6z m484 -305 c1
-6 -5 -1 -13 9 -8 11 -12 24 -8 29 5 9 20 -17 21 -38z m216 5 c3 -5 2 -12 -3
-15 -5 -3 -9 1 -9 9 0 17 3 19 12 6z m-451 -82 c-7 -12 -32 2 -64 36 l-25 26
48 -26 c26 -15 45 -31 41 -36z m271 -29 c-3 -5 -12 -10 -18 -10 -7 0 -6 4 3
10 19 12 23 12 15 0z m-375 -40 c0 -5 -5 -10 -11 -10 -5 0 -7 5 -4 10 3 6 8
10 11 10 2 0 4 -4 4 -10z m-70 -34 c0 -2 -7 -7 -16 -10 -8 -3 -12 -2 -9 4 6
10 25 14 25 6z m-282 -96 c-7 -11 -14 -17 -17 -15 -2 3 1 11 7 18 7 8 8 18 4
22 -4 5 -1 5 5 1 10 -5 10 -11 1 -26z m-17 -57 c-12 -20 -14 -14 -5 12 4 9 9
14 11 11 3 -2 0 -13 -6 -23z"/>
<path d="M1881 1921 c6 -17 9 -34 7 -37 -3 -2 -31 7 -63 22 -65 28 -65 29 7
-55 44 -51 47 -61 14 -61 -14 0 -28 -4 -31 -10 -3 -5 3 -10 14 -10 13 0 21 -7
21 -17 0 -15 2 -16 10 -3 7 11 10 11 10 2 0 -7 5 -10 10 -7 6 3 10 2 10 -3 0
-5 9 -12 20 -15 11 -3 18 -1 14 4 -3 5 2 6 10 3 9 -3 16 -9 16 -13 0 -4 6 -8
13 -8 6 0 22 -3 34 -7 23 -7 23 -7 5 26 -9 18 -23 37 -29 41 -20 13 -15 34 10
41 21 6 21 7 -10 24 -30 16 -76 65 -69 73 2 2 -5 13 -15 23 -19 19 -19 19 -8
-13z m48 -78 c12 -14 20 -28 18 -30 -7 -7 -37 9 -32 17 3 5 -2 16 -11 24 -8 9
-11 16 -5 16 5 0 19 -12 30 -27z m-19 -68 c11 -13 10 -14 -4 -9 -9 3 -16 10
-16 15 0 13 6 11 20 -6z"/>
<path d="M6849 1907 c-34 -32 -42 -37 -56 -37 -5 0 -2 -4 6 -9 10 -6 25 3 54
30 48 48 45 61 -4 16z"/>
<path d="M6875 1874 c-28 -15 -54 -30 -59 -34 -12 -12 4 -70 20 -70 8 0 14 -8
14 -17 0 -15 2 -16 10 -3 6 10 10 11 10 3 0 -19 23 -11 37 12 9 15 9 23 0 34
-9 12 -9 13 0 8 8 -5 19 6 33 32 16 32 17 39 5 35 -8 -4 -16 -10 -16 -15 -1
-5 -2 -13 -3 -18 0 -5 -4 -13 -8 -17 -8 -7 -4 22 7 57 8 24 10 24 -50 -7z"/>
<path d="M1983 1803 c-7 -2 -13 -9 -13 -14 0 -6 7 -6 19 0 10 6 22 7 26 3 5
-4 5 -1 1 6 -8 13 -13 14 -33 5z"/>
<path d="M6971 1739 c-17 -14 -21 -23 -14 -30 8 -8 13 -5 18 11 4 12 16 25 28
30 13 5 16 9 7 9 -8 0 -26 -9 -39 -20z"/>
<path d="M6980 1694 c0 -8 5 -12 10 -9 6 4 8 11 5 16 -9 14 -15 11 -15 -7z"/>
<path d="M1402 1627 c-61 -41 -62 -43 -57 -80 2 -20 14 -47 26 -60 12 -12 18
-15 14 -7 -7 12 -6 13 6 4 21 -16 69 -23 69 -10 0 8 2 8 8 0 12 -17 39 -23 51
-11 8 8 11 8 11 0 0 -6 13 -13 29 -15 20 -3 28 -1 24 6 -4 6 1 5 10 -3 14 -11
17 -11 17 0 0 11 2 11 10 -1 5 -8 10 -11 10 -6 0 5 7 3 15 -4 12 -10 18 -10
32 1 13 11 15 11 9 1 -6 -10 -3 -13 10 -12 11 1 21 1 24 0 3 -1 16 -3 29 -6
l24 -4 -27 25 c-34 32 -274 225 -278 224 -2 0 -31 -19 -66 -42z"/>
<path d="M6380 1439 c0 -5 5 -7 10 -4 6 3 10 8 10 11 0 2 -4 4 -10 4 -5 0 -10
-5 -10 -11z"/>
<path d="M5809 1388 c-24 -3 -66 -7 -94 -7 -27 -1 -55 -5 -61 -9 -6 -4 -12
-26 -12 -49 -1 -24 -6 -62 -11 -85 -9 -36 -7 -44 12 -65 12 -12 30 -23 40 -23
9 0 17 -4 17 -10 0 -5 8 -10 18 -10 9 0 28 -9 42 -20 14 -11 33 -20 43 -20 12
0 16 -5 11 -12 -11 -21 28 23 68 76 21 27 35 53 32 58 -3 4 0 7 8 6 7 -2 12 3
11 10 -2 6 2 12 7 12 6 0 10 5 10 10 0 6 9 19 20 30 21 21 19 46 -2 34 -7 -4
-8 -2 -4 4 4 6 14 8 23 5 11 -4 14 -3 9 5 -4 7 -2 12 3 12 6 0 11 7 11 15 0 8
-5 15 -11 15 -5 0 -7 -5 -3 -12 4 -7 3 -8 -4 -4 -6 4 -9 13 -6 20 4 11 -10 15
-64 18 -38 1 -89 0 -113 -4z"/>
<path d="M2055 916 c-11 -13 -19 -46 -10 -46 6 0 27 51 23 55 -2 2 -7 -2 -13
-9z"/>
<path d="M2125 828 c-13 -35 -35 -115 -35 -127 0 -11 3 -11 15 -1 9 7 19 10
22 6 4 -4 1 -11 -7 -16 -8 -5 -11 -12 -7 -16 9 -9 38 16 31 27 -3 5 1 6 9 4 7
-3 30 10 51 30 21 19 40 35 44 35 9 1 52 37 52 44 0 10 -24 2 -39 -14 -7 -8
-6 -3 3 13 l16 27 -75 0 c-51 0 -77 -4 -80 -12z m90 -68 c-3 -5 -14 -10 -23
-9 -14 0 -13 2 3 9 27 11 27 11 20 0z m-48 -35 c0 -8 -4 -12 -9 -9 -5 3 -6 10
-3 15 9 13 12 11 12 -6z"/>
<path d="M3101 776 c-41 -11 -45 -14 -44 -44 3 -82 3 -83 16 -75 6 4 19 8 27
10 12 1 11 -1 -2 -11 -10 -7 -15 -16 -12 -19 10 -10 36 22 30 38 -3 9 0 12 10
8 10 -4 17 2 21 16 3 11 9 21 14 21 5 0 9 5 9 11 0 6 -7 8 -16 5 -9 -3 -12 -2
-9 5 4 6 13 8 20 5 8 -3 19 2 27 11 11 14 10 15 -10 9 -23 -8 -32 8 -9 17 24
10 -28 5 -72 -7z"/>
<path d="M6195 700 c3 -5 8 -10 11 -10 2 0 4 5 4 10 0 6 -5 10 -11 10 -5 0 -7
-4 -4 -10z"/>
<path d="M2764 617 c-1 -29 -4 -80 -7 -115 -5 -62 -5 -62 13 -40 l18 23 -5
-30 c-5 -28 -4 -29 11 -14 9 9 18 25 19 37 0 11 4 19 8 16 4 -2 10 0 14 6 3 5
2 10 -4 10 -6 0 -7 7 -4 17 4 11 3 14 -5 9 -8 -5 -10 -2 -6 9 4 8 1 21 -5 29
-6 7 -8 16 -5 19 4 3 -1 13 -10 22 -9 9 -16 23 -16 30 0 8 -3 16 -7 18 -5 3
-8 -18 -9 -46z"/>
<path d="M3143 640 c-29 -10 -53 -16 -53 -13 0 3 -7 0 -15 -7 -12 -10 -15 -9
-15 6 0 16 -2 16 -10 4 -6 -9 -5 -17 2 -21 10 -6 13 -28 18 -114 1 -16 4 -24
7 -17 2 6 9 12 15 12 6 0 7 -7 4 -16 -4 -10 -1 -14 6 -11 7 2 12 11 12 20 -1
9 1 15 5 12 8 -4 20 9 60 65 19 26 20 32 7 27 -10 -4 -15 -3 -11 3 3 6 14 10
25 10 10 0 20 7 24 15 3 9 0 15 -10 15 -8 0 -13 -4 -10 -8 3 -5 -1 -9 -9 -9
-11 0 -10 5 2 24 18 28 14 28 -54 3z m17 -80 c0 -5 -5 -10 -11 -10 -5 0 -7 5
-4 10 3 6 8 10 11 10 2 0 4 -4 4 -10z"/>
<path d="M5090 620 c-8 -5 -11 -12 -7 -16 4 -4 13 -2 19 4 15 15 7 24 -12 12z"/>
<path d="M4375 580 c-3 -6 1 -7 9 -4 18 7 21 14 7 14 -6 0 -13 -4 -16 -10z"/>
<path d="M6201 474 c0 -11 3 -14 6 -6 3 7 2 16 -1 19 -3 4 -6 -2 -5 -13z"/>
<path d="M4526 395 c-11 -29 -7 -38 11 -24 15 13 16 11 9 -14 -6 -24 -4 -26 7
-16 14 14 21 53 7 44 -5 -3 -13 2 -18 11 -8 15 -10 15 -16 -1z"/>
<path d="M3995 350 c-3 -5 -1 -10 4 -10 6 0 11 5 11 10 0 6 -2 10 -4 10 -3 0
-8 -4 -11 -10z"/>
</g>
</svg>
